<svg width="69" height="59" viewBox="0 0 69 59" fill="none" xmlns="http://www.w3.org/2000/svg">
<g clip-path="url(#clip0_1_831)">
<path fill-rule="evenodd" clip-rule="evenodd" d="M54.4588 0C58.4735 0 62.1094 1.63791 64.7414 4.28595C67.372 6.93264 69 10.5908 69 14.63C69 18.6692 67.372 22.3274 64.7414 24.9741C62.1094 27.6221 58.4735 29.26 54.4588 29.26C50.4441 29.26 46.8081 27.6221 44.1775 24.9741C41.5455 22.3274 39.9176 18.6692 39.9176 14.63C39.9176 10.5908 41.5455 6.93264 44.1775 4.28595C46.8081 1.63791 50.4441 0 54.4588 0ZM2.05652 6.1503C0.94875 6.1503 0 5.19575 0 4.02834C0 2.9138 0.94875 1.95925 2.05652 1.95925H5.1157C7.0132 2.01213 8.70182 2.38365 10.1249 3.28531C12.8849 5.04389 13.3755 7.5577 14.0803 10.3956H37.4541C37.1293 11.723 36.9527 13.1101 36.946 14.5364H27.4733V14.5337H15.2406L19.9345 32.3094H53.2136L53.2392 32.2091C53.6421 32.2362 54.0491 32.2511 54.4588 32.2511C55.5046 32.2511 56.5274 32.1589 57.522 31.9813L56.7997 34.91C56.5881 35.8645 55.7445 36.5018 54.7957 36.5018H21.0423C21.7808 39.261 22.5193 40.7471 23.5206 41.4372C24.7335 42.2331 26.844 42.286 30.3775 42.2331H54.2688C55.4278 42.2331 56.3253 43.1877 56.3253 44.3022C56.3253 45.4696 55.3752 46.3713 54.2688 46.3713H30.4301C26.0529 46.4242 23.363 46.3184 21.2 44.8852C18.9858 43.4005 17.8254 40.8528 16.6651 36.236L9.59801 9.33391C9.59801 9.28104 9.59801 9.28104 9.54545 9.22816C9.22875 8.06074 8.70182 7.26483 7.9633 6.84044C7.22479 6.36317 6.22213 6.1503 5.06314 6.1503H2.05652ZM34.1806 18.9078C34.1806 18.2543 34.8234 17.7241 35.6159 17.7241C36.4083 17.7241 37.0498 18.2543 37.0498 18.9078V26.9116C37.0498 27.5651 36.4083 28.0953 35.6159 28.0953C34.8234 28.0953 34.1806 27.5651 34.1806 26.9116V18.9078ZM25.5893 18.9078C25.5893 18.2543 26.2321 17.7241 27.0246 17.7241C27.817 17.7241 28.4598 18.2543 28.4598 18.9078V26.9116C28.4598 27.5651 27.817 28.0953 27.0246 28.0953C26.2321 28.0953 25.5893 27.5651 25.5893 26.9116V18.9078ZM48.0979 48.8119C50.8929 48.8119 53.161 51.0938 53.161 53.9059C53.161 56.718 50.8929 59 48.0979 59C45.3028 59 43.0347 56.718 43.0347 53.9059C43.0347 51.0938 45.3028 48.8119 48.0979 48.8119ZM25.8939 48.8119C28.6903 48.8119 30.957 51.0938 30.957 53.9059C30.957 56.718 28.6903 59 25.8939 59C23.0988 59 20.8321 56.718 20.8321 53.9059C20.8321 51.0938 23.0988 48.8119 25.8939 48.8119ZM58.7484 8.39429L60.658 10.3156C61.1081 10.7684 61.1081 11.5182 60.658 11.9711L58.0153 14.63L60.658 17.2889C61.1095 17.7418 61.1095 18.4902 60.658 18.9444L58.7484 20.8657C58.2983 21.3186 57.5557 21.3213 57.1029 20.8657L54.4601 18.2068L51.8174 20.8657C51.3673 21.3186 50.6234 21.3213 50.1719 20.8657L48.2623 18.9444C47.8095 18.4889 47.8095 17.7445 48.2609 17.2889L50.905 14.63L48.2623 11.9711C47.8095 11.5155 47.8095 10.7712 48.2623 10.3156L50.1719 8.39429C50.6247 7.93871 51.3673 7.94006 51.8187 8.39429L54.4601 11.0532L57.1029 8.39293C57.5557 7.93871 58.301 7.94278 58.7484 8.39429Z" fill="white"/>
</g>
<defs>
<clipPath id="clip0_1_831">
<rect width="69" height="59" fill="white"/>
</clipPath>
</defs>
</svg>
