<svg width="61" height="60" viewBox="0 0 61 60" fill="none" xmlns="http://www.w3.org/2000/svg">
<g clip-path="url(#clip0_1_840)">
<path d="M6.80096 24.1894L3.97137 16.4209C3.89489 16.2112 3.8612 15.9888 3.87221 15.7663C3.88323 15.5438 3.93874 15.3256 4.03557 15.1243C4.13239 14.9229 4.26864 14.7423 4.4365 14.5928C4.60437 14.4433 4.80056 14.3278 5.01385 14.2529C5.14436 14.2097 5.27914 14.1803 5.41595 14.165L13.5523 13.3301L14.3962 5.26854C14.4191 5.04692 14.4863 4.83193 14.5938 4.63586C14.7013 4.43979 14.8471 4.26651 15.0227 4.12591C15.1984 3.98532 15.4005 3.88018 15.6176 3.81651C15.8346 3.75284 16.0623 3.7319 16.2875 3.75487C16.4077 3.76467 16.5261 3.78928 16.64 3.82811L24.5827 5.83495L29.1895 0.590806C29.4881 0.250605 29.9113 0.0402233 30.3669 0.00547141C30.8224 -0.0292805 31.2735 0.114412 31.6219 0.40526C31.7357 0.503919 31.8373 0.615356 31.9247 0.737291L36.3925 6.67967L44.2905 3.84764C44.5053 3.77108 44.7333 3.73715 44.9614 3.74782C45.1896 3.7585 45.4133 3.81356 45.6196 3.90982C45.826 4.00609 46.0109 4.14165 46.1636 4.30866C46.3164 4.47567 46.434 4.67081 46.5095 4.8828C46.5579 5.01353 46.5896 5.14966 46.6039 5.28807L47.4478 13.3496L55.6437 14.1601C55.9252 14.1882 56.1954 14.284 56.4304 14.4391C56.6653 14.5942 56.8578 14.8039 56.9908 15.0496C57.1238 15.2953 57.1932 15.5694 57.1928 15.8478C57.1925 16.1261 57.1225 16.4001 56.989 16.6455L53.3651 23.3691L60.315 28.6572C60.4945 28.793 60.645 28.9624 60.7578 29.1557C60.8705 29.3489 60.9433 29.5622 60.9719 29.7832C61.0005 30.0042 60.9844 30.2286 60.9244 30.4435C60.8645 30.6583 60.762 30.8594 60.6227 31.0351C60.5228 31.167 60.4021 31.2823 60.2653 31.3769L54.209 35.8057L57.0882 43.5742C57.2433 43.9971 57.2218 44.4632 57.0282 44.8704C56.8347 45.2777 56.485 45.5929 56.0557 45.7471C55.9228 45.7946 55.7844 45.8258 55.6437 45.8398L47.4478 46.6699L46.6039 54.6875C46.5563 55.1346 46.3305 55.5449 45.976 55.8286C45.6215 56.1123 45.1672 56.2462 44.7125 56.2012C44.4925 56.1781 44.2788 56.1152 44.0821 56.0156L37.2315 52.4853L31.8453 59.3213C31.6818 59.5315 31.4704 59.701 31.2281 59.8161C30.9857 59.9312 30.7193 59.9887 30.4502 59.984C30.1812 59.9792 29.917 59.9124 29.6791 59.7888C29.4411 59.6652 29.236 59.4883 29.0803 59.2724L24.5728 53.291L16.6747 56.0937C16.4327 56.1773 16.1747 56.2065 15.9196 56.1795C15.6646 56.1524 15.4189 56.0696 15.2005 55.9372C14.9822 55.8047 14.7966 55.626 14.6575 55.414C14.5183 55.202 14.429 54.9622 14.3962 54.7119L13.5523 47.5049L5.22731 45.8105C5.00582 45.7663 4.79539 45.6795 4.60807 45.5551C4.42075 45.4307 4.26023 45.2712 4.13571 45.0856C4.0112 44.9001 3.92513 44.6922 3.88245 44.4739C3.83977 44.2556 3.84131 44.0312 3.88698 43.8135C3.90237 43.7095 3.93071 43.6079 3.97137 43.5107L6.80096 35.8105L0.695003 31.3623C0.328334 31.0938 0.0848291 30.6932 0.0178345 30.2484C-0.04916 29.8036 0.0658188 29.3508 0.337582 28.9892C0.444575 28.8481 0.573582 28.7245 0.719824 28.623L6.80096 24.1894ZM37.7726 21.1621L27.6307 38.5058C27.5346 38.6779 27.4233 38.8413 27.2981 38.9941C27.1871 39.135 27.0487 39.2529 26.8911 39.3408C26.72 39.4237 26.5349 39.475 26.345 39.4922C26.1292 39.5172 25.912 39.5286 25.6947 39.5264H23.7785C23.6266 39.5264 23.4809 39.4674 23.3731 39.3622C23.2652 39.257 23.204 39.1142 23.2027 38.9648C23.2029 38.8479 23.2392 38.7338 23.3069 38.6377L33.4537 21.2744C33.5474 21.1031 33.6553 20.9398 33.7764 20.7861V20.7568C33.885 20.629 34.0162 20.5215 34.1636 20.4394C34.3484 20.3587 34.5473 20.3139 34.7494 20.3076C34.9619 20.2826 35.1758 20.2712 35.3898 20.2734H37.301C37.4528 20.2734 37.5986 20.3324 37.7064 20.4376C37.8143 20.5428 37.8755 20.6856 37.8768 20.8349C37.8766 20.9519 37.8403 21.066 37.7726 21.1621ZM34.0991 38.7744C33.2452 37.8955 32.8133 36.5478 32.8133 34.7314C32.8133 32.915 33.2452 31.5674 34.0991 30.6885C34.9529 29.8096 36.3429 29.3701 38.269 29.3701C40.1951 29.3701 41.5851 29.8096 42.4389 30.6885C43.2927 31.5674 43.7197 32.915 43.7197 34.7314C43.7197 36.5478 43.2927 37.8955 42.4389 38.7744C41.5851 39.6533 40.1951 40.0928 38.269 40.0928C36.3429 40.0928 34.9529 39.6533 34.0991 38.7744ZM37.0776 33.1885V37.0947H37.7229C38.267 37.1065 38.8109 37.064 39.3462 36.9678C39.4554 36.8799 39.51 36.6406 39.51 36.2549V32.3486H38.0208C37.7525 32.3203 37.4814 32.3641 37.2364 32.4756C37.1322 32.5635 37.0776 32.8027 37.0776 33.1885ZM18.5611 29.2969C17.7073 28.418 17.2804 27.0703 17.2804 25.2539C17.2804 23.4375 17.7073 22.0898 18.5611 21.2109C19.415 20.332 20.805 19.8926 22.7311 19.8926C24.6572 19.8926 26.0471 20.332 26.901 21.2109C27.7548 22.0898 28.1817 23.4375 28.1817 25.2539C28.1817 27.0703 27.7548 28.418 26.901 29.2969C26.0471 30.1758 24.6572 30.6152 22.7311 30.6152C20.805 30.6152 19.415 30.1758 18.5611 29.2969ZM21.5396 23.7109V27.6172H23.0289C23.2961 27.6449 23.5659 27.5992 23.8083 27.4853C23.9175 27.3974 23.9721 27.1582 23.9721 26.7724V22.8662H23.297C22.7543 22.8531 22.2117 22.8973 21.6786 22.998C21.5694 23.081 21.5148 23.3203 21.5148 23.706L21.5396 23.7109ZM7.94273 17.3144L10.4248 24.1504C10.5727 24.5004 10.5973 24.8891 10.4948 25.2545C10.3922 25.6199 10.1684 25.9411 9.8589 26.167L4.61672 30L9.87876 33.8379C10.1795 34.0562 10.4002 34.3646 10.5076 34.7168C10.615 35.0689 10.6034 35.4459 10.4745 35.791L7.8633 42.8906L15.389 44.4336C15.7704 44.4833 16.124 44.6568 16.3938 44.9265C16.6636 45.1963 16.8341 45.5469 16.8783 45.9228L17.6179 52.2217L24.5926 49.751C24.9419 49.6128 25.3276 49.591 25.6907 49.6889C26.0538 49.7867 26.3743 49.9989 26.6031 50.293L30.5298 55.5078L35.3649 49.3506C35.6067 49.0155 35.9637 48.7779 36.3699 48.6819C36.776 48.5858 37.2038 48.6378 37.574 48.8281L43.4367 51.8603L44.1813 44.9707C44.2208 44.5857 44.393 44.2256 44.6693 43.9502C44.9457 43.6748 45.3095 43.5008 45.7004 43.457L53.1169 42.6904L50.5355 35.8008C50.4039 35.4568 50.3899 35.0801 50.4956 34.7276C50.6013 34.3752 50.821 34.0662 51.1213 33.8476L56.4181 29.9805L50.2029 25.2588C49.8466 25.0223 49.592 24.6643 49.4884 24.254C49.3848 23.8436 49.4395 23.4101 49.6419 23.0371L52.7495 17.2754L45.7202 16.5674C45.3254 16.5267 44.9568 16.3535 44.6765 16.077C44.3963 15.8004 44.2214 15.4373 44.1813 15.0488L43.402 7.77831L36.3975 10.293C36.0476 10.4208 35.6651 10.4337 35.3072 10.3298C34.9492 10.226 34.6351 10.0109 34.4118 9.71678L30.4007 4.39452L26.5287 8.82323C26.3187 9.06304 26.0447 9.24039 25.7377 9.33528C25.4308 9.43018 25.1029 9.43886 24.7912 9.36034L17.6229 7.56835L16.8386 15.0293C16.8027 15.4207 16.6295 15.7878 16.3488 16.0675C16.068 16.3472 15.6972 16.5222 15.2997 16.5625L7.94273 17.3144Z" fill="white"/>
</g>
<defs>
<clipPath id="clip0_1_840">
<rect width="61" height="60" fill="white"/>
</clipPath>
</defs>
</svg>
