<svg width="55" height="63" viewBox="0 0 55 63" fill="none" xmlns="http://www.w3.org/2000/svg">
<path fill-rule="evenodd" clip-rule="evenodd" d="M31.4674 25.5619V58.0965C31.4674 60.6846 29.3607 62.8018 26.7722 62.8018H4.72204C2.13393 62.8018 0.026825 60.6851 0.026825 58.0965V25.5619C0.026825 24.5486 0.307627 23.676 0.889384 22.8432L11.9147 7.31326C12.376 6.67105 12.938 6.17958 13.5899 5.84841V8.56705C13.0782 9.09887 12.7672 9.82129 12.7672 10.6238C12.7672 12.2692 14.1015 13.6035 15.7469 13.6035C17.3923 13.6035 18.7363 12.2692 18.7363 10.6238C18.7363 9.82127 18.4152 9.09885 17.9136 8.56705V5.84841C18.5558 6.17959 19.1275 6.6711 19.5792 7.31326L30.6045 22.8432C31.1963 23.676 31.4671 24.5486 31.4671 25.5619H31.4674ZM17.6533 25.7126C18.7567 26.0135 19.7297 26.6054 20.4923 27.4881C21.4456 28.5916 21.9169 30.0162 21.9371 31.4609C21.9371 31.6016 21.9371 31.7417 21.927 31.8723V31.8824L18.1347 31.7418V31.6914V31.5109C18.1347 30.9589 17.9744 30.3872 17.6029 29.9558C17.2016 29.4844 16.5997 29.3035 15.9979 29.2737H15.7569C15.155 29.2737 14.5631 29.4542 14.1115 29.8756C13.8408 30.1362 13.6402 30.4775 13.5398 30.8485C13.4395 31.1797 13.4294 31.5407 13.5197 31.8719C13.5898 32.1426 13.7405 32.3936 13.9713 32.5439L16.5998 33.9988L19.3285 35.4435L19.3986 35.4838C20.5223 36.1558 21.3148 37.1993 21.656 38.4635C21.9267 39.4567 21.897 40.5203 21.6258 41.5134C21.3349 42.5367 20.7729 43.4798 20.0006 44.2118C19.3286 44.854 18.5357 45.3153 17.6529 45.586V48.3748H13.8408V45.6259C12.7373 45.3249 11.7643 44.7331 11.0018 43.8504C10.0586 42.7469 9.57716 41.3223 9.55698 39.8775C9.55698 39.7469 9.55698 39.6168 9.56705 39.4964L13.3791 39.3457L13.359 39.6365V39.8271C13.369 40.3791 13.5193 40.9508 13.8908 41.3721C14.2921 41.8435 14.894 42.0341 15.4958 42.0542C15.576 42.0643 15.6562 42.0643 15.7368 42.0643C16.3487 42.0542 16.9405 41.8838 17.3822 41.4624C17.663 41.1916 17.8535 40.8504 17.9639 40.4894C18.0542 40.1582 18.0743 39.7973 17.9841 39.456C17.9039 39.1853 17.7532 38.9444 17.5228 38.784L14.8142 37.3493L14.784 37.3393L12.1254 35.8744L12.0951 35.8442C10.9614 35.1823 10.179 34.1287 9.83775 32.8746C9.56701 31.8815 9.59681 30.8077 9.87805 29.8248C10.1589 28.8014 10.7209 27.8583 11.4932 27.1263C12.1652 26.4841 12.9677 26.0228 13.8408 25.7521V22.9633H17.6529V25.7123L17.6533 25.7126ZM8.87525 53.5315H22.6187V56.3303H8.87525V53.5315ZM36.905 15.4893L53.3983 43.5393C54.7126 45.7664 53.9599 48.6555 51.7327 49.9702L34.2267 60.263C34.4274 59.581 34.5277 58.8485 34.5277 58.0959V25.5613C34.5277 23.9159 34.0563 22.4212 33.1031 21.0768L24.5156 8.97737L34.7788 13.592C35.7119 14.0033 36.3939 14.6153 36.9056 15.4879L36.905 15.4893ZM15.7476 -0.000244141C16.4699 -0.000244141 17.0618 0.591583 17.0618 1.31399V9.27938C17.0618 10.0018 16.47 10.5936 15.7476 10.5936C15.0251 10.5936 14.4333 10.0018 14.4333 9.27938V1.31399C14.4333 0.591617 15.0251 -0.000244141 15.7476 -0.000244141Z" fill="#6FB43B"/>
</svg>
