<svg width="66" height="59" viewBox="0 0 66 59" fill="none" xmlns="http://www.w3.org/2000/svg">
<mask id="path-1-outside-1_1_861" maskUnits="userSpaceOnUse" x="0" y="0" width="66" height="60" fill="black">
<rect fill="white" width="66" height="60"/>
<path fill-rule="evenodd" clip-rule="evenodd" d="M43.6611 9.48738C43.1067 9.92915 42.288 9.85887 41.8268 9.3167C41.3656 8.77453 41.4433 7.98638 42.003 7.53959L49.8117 1.28958C50.3661 0.847816 51.1848 0.918098 51.646 1.45525C52.102 1.9924 52.0295 2.78557 51.4698 3.23236L43.6611 9.48738ZM5.72623 31.5105C4.86607 31.7565 4.23391 32.2986 3.8142 33.0165C3.33231 33.8448 3.11468 34.9141 3.13022 36.0587C3.1354 36.5507 3.18722 37.0577 3.27531 37.5697C3.3634 38.0868 3.49812 38.6039 3.66393 39.1109C3.83493 39.623 4.04219 40.1199 4.28573 40.5968C4.52409 41.0587 4.79353 41.5005 5.08889 41.9021C5.81432 42.881 6.71592 43.6591 7.75744 44.0507C8.66422 44.3971 9.68501 44.4473 10.7835 44.0808L10.8042 44.0758C10.9286 44.0356 11.053 44.0205 11.1773 44.0306C11.2654 44.0356 11.3535 44.0507 11.4416 44.0758L11.4675 44.0657C11.7629 43.9703 12.0686 43.88 12.3691 43.7896L13.193 43.5436C13.4935 43.4583 13.7785 43.378 14.048 43.3027C14.3122 43.2274 14.5817 43.1571 14.8563 43.0868C15.1413 43.0115 15.4263 43.0567 15.6646 43.1872L15.6905 43.2023C15.9134 43.3328 16.0843 43.5436 16.1621 43.8097C16.1776 43.8549 16.1828 43.89 16.188 43.9302C16.2605 44.2464 16.3486 44.5728 16.4108 44.889C16.9756 47.3388 17.5248 49.6983 18.2555 51.6109C18.3176 51.8017 18.3954 51.9874 18.4679 52.1782C18.6907 52.7806 18.9239 53.4031 19.183 53.9704C19.4317 54.5226 19.696 55.0145 19.9965 55.376V55.381C20.2193 55.6521 20.4784 55.8228 20.7841 55.8378C21.1209 55.8529 21.5406 55.6973 22.0692 55.3007C22.2971 55.0949 22.5044 54.9192 22.7169 54.7434L22.7635 54.7033C23.3853 54.1812 24.0071 53.6641 24.2765 52.9563C24.2351 52.9262 24.1884 52.8961 24.1366 52.871C24.0175 52.8057 23.8672 52.7404 23.7169 52.6802L23.7014 52.6752C23.1469 52.4493 22.5977 52.2183 22.1987 51.7364C21.7945 51.2495 21.5769 50.5416 21.7272 49.387C21.7323 49.3167 21.7427 49.2565 21.7531 49.1963C21.7634 49.126 21.7738 49.0557 21.779 48.9854C21.8463 48.4633 21.8826 48.1922 21.8619 48.1169V48.1069C21.8463 48.0868 21.7375 48.0115 21.5199 47.8157C21.4577 47.7605 21.3904 47.7053 21.3334 47.645C21.0121 47.3539 20.7841 47.0075 20.639 46.626C20.4784 46.2043 20.4162 45.7424 20.4214 45.2605C20.4266 44.7886 20.4991 44.2966 20.6079 43.8298C20.7427 43.2625 20.9344 42.7203 21.1261 42.2736L21.1365 42.2585C21.209 42.0928 21.323 41.9573 21.4577 41.8569C21.6028 41.7464 21.779 41.6762 21.9603 41.6511H21.9707C25.8932 41.124 29.0592 41.1942 31.7174 41.5256C34.1165 41.8268 36.0907 42.3338 37.8473 42.8157C36.5052 41.3348 35.272 39.5928 34.1579 37.6952C32.7226 35.2454 31.4894 32.5296 30.4945 29.7786C29.4893 26.9974 28.7276 24.1762 28.2509 21.5456C27.8519 19.3368 27.6498 17.2585 27.6757 15.4563C26.1782 17.5396 24.1625 20.0697 21.1986 22.6199C17.815 25.5266 13.193 28.4583 6.68483 30.7776C6.61747 30.7976 6.55011 30.8227 6.48275 30.8428L6.45166 30.893C6.45166 30.893 6.45684 30.888 6.33766 31.0687L6.3273 31.0838C6.25994 31.1842 6.17703 31.2695 6.08376 31.3398C5.98013 31.4151 5.86613 31.4754 5.74177 31.5105H5.72623ZM35.2875 35.396C36.2617 37.2083 37.3395 38.895 38.5054 40.3559C39.6142 41.7414 40.806 42.9312 42.06 43.8298L42.1895 43.8398C42.2517 43.8448 42.3139 43.8448 42.3657 43.8398H42.3864C42.4849 43.8348 42.5833 43.8197 42.6869 43.7896C42.7854 43.7595 42.889 43.7143 42.9978 43.6541C43.2621 43.393 43.4797 43.0517 43.6559 42.6501C43.8528 42.2083 43.9979 41.6862 44.0912 41.1039C44.3762 39.382 44.2414 37.1782 43.801 34.7434C43.3191 32.0828 42.4641 29.1561 41.3864 26.2896C40.3293 23.4733 39.0546 20.7223 37.697 18.3428C36.4068 16.0737 35.044 14.146 33.7279 12.8257C33.2356 12.3288 32.7589 11.9322 32.3081 11.646C31.8884 11.38 31.4998 11.2093 31.1422 11.1541H31.1319C31.049 11.139 30.9816 11.134 30.9298 11.129C30.909 11.129 30.9298 11.1139 30.9194 11.1189C30.9142 11.1189 30.9142 11.129 30.8883 11.149C30.8417 11.1892 30.7743 11.2494 30.6966 11.3247C30.6292 11.385 30.5619 11.4603 30.4997 11.5306L30.479 11.5707C29.8779 12.7755 29.6706 14.6832 29.8002 17.0075C29.9349 19.3669 30.422 22.143 31.2148 25.0245C33.4688 24.5225 35.2305 24.9844 36.4431 25.9633C37.1529 26.5356 37.6659 27.2786 37.982 28.1069C38.2929 28.9302 38.4069 29.8388 38.3136 30.7474C38.1375 32.5346 37.1478 34.3017 35.2875 35.396ZM41.8786 45.883C41.775 45.8981 41.6713 45.8981 41.5677 45.883C41.4693 45.8679 41.3708 45.8428 41.2775 45.7977C41.1376 45.7726 40.9977 45.7475 40.863 45.7173C39.8837 45.5216 38.9302 45.2555 37.9043 44.9744L37.8369 44.9543C34.3186 43.9854 29.9194 42.7705 22.8723 43.6139C22.779 43.875 22.7013 44.1561 22.6391 44.4322C22.577 44.7234 22.5407 45.0145 22.5355 45.2806C22.5355 45.4914 22.5562 45.6872 22.6029 45.8479C22.6391 45.9683 22.6961 46.0687 22.7739 46.139L22.8982 46.2495C23.4734 46.7565 23.7532 47.0075 23.9138 47.5798C24.0434 48.0416 23.9864 48.4683 23.8724 49.3117C23.8568 49.4272 23.8465 49.5426 23.8257 49.6581C23.7739 50.0647 23.8413 50.3007 23.9656 50.4463C24.0952 50.5969 24.318 50.6922 24.546 50.7826L24.5719 50.7926C25.2973 51.0938 26.0228 51.4001 26.3958 52.3991C26.4373 52.4894 26.4632 52.5898 26.4736 52.6902C26.4839 52.7906 26.4839 52.891 26.4632 52.9965V53.0015C26.3026 53.8097 25.9606 54.4272 25.5305 54.9543C25.1108 55.4714 24.6133 55.883 24.1211 56.2947L24.0071 56.39C23.8361 56.5306 23.6703 56.6712 23.5097 56.8218L23.4267 56.892C22.3023 57.7605 21.3437 58.0718 20.4991 57.9864C19.6441 57.9011 18.9343 57.4091 18.3332 56.6762C17.9187 56.1742 17.5767 55.5567 17.2709 54.8991C16.9704 54.2465 16.7113 53.5587 16.4626 52.891C16.3952 52.7053 16.3227 52.5196 16.2502 52.3338C15.4833 50.3308 14.9185 47.8961 14.3381 45.381C14.1516 45.4312 13.9651 45.4914 13.7785 45.5416C13.4883 45.627 13.2034 45.7073 12.9287 45.7926C12.6489 45.878 12.3743 45.9633 12.1048 46.0436L12.0893 46.0487C12.0478 46.0587 12.0168 46.0738 11.9908 46.0838L11.9753 46.0888C11.7784 46.1691 11.6333 46.2244 11.4675 46.2394C11.3172 46.2545 11.1773 46.2394 11.0115 46.1792C9.51402 46.5808 8.13051 46.4603 6.89728 45.9784C5.49824 45.4262 4.29609 44.3971 3.34267 43.1069L3.33231 43.0969C2.97477 42.5999 2.65351 42.0677 2.36852 41.5055C2.07835 40.9382 1.83481 40.3458 1.63272 39.7434C1.43064 39.141 1.27519 38.5236 1.17156 37.9061C1.06792 37.2936 1.01093 36.6812 1.00056 36.0788C0.985018 34.5627 1.29074 33.127 1.96953 31.9673C2.58097 30.9282 3.49294 30.1149 4.73135 29.6631C4.77799 29.5928 4.81426 29.5326 4.85571 29.4824C4.92307 29.397 4.99562 29.3217 5.09407 29.2414L5.11479 29.2264C5.21843 29.141 5.31688 29.0858 5.43087 29.0306C5.53451 28.9854 5.65369 28.9402 5.81432 28.885L5.9594 28.8348C12.5453 26.4854 17.1 23.4834 20.3696 20.5466C23.6392 17.6099 25.6289 14.7384 27.0643 12.65L27.0954 12.6049C27.8985 11.4402 28.5462 10.5115 29.1939 9.88397C29.3597 9.72333 29.5048 9.5928 29.6603 9.48236C29.8209 9.3669 29.9867 9.27654 30.1784 9.20626C30.3805 9.13598 30.5774 9.09582 30.7899 9.08578C30.9971 9.07574 31.2199 9.09582 31.479 9.13598C32.0905 9.23136 32.7123 9.47734 33.3392 9.85887C33.9766 10.2454 34.6191 10.7725 35.2565 11.4151C36.6762 12.8408 38.1375 14.899 39.5106 17.3037C40.9407 19.8037 42.2776 22.6751 43.3761 25.6119C44.5057 28.6239 45.3969 31.7063 45.8996 34.5326C46.3607 37.138 46.4955 39.5326 46.1742 41.4452C46.0395 42.2485 45.827 42.9814 45.5317 43.6139C45.2415 44.2364 44.8632 44.7736 44.3969 45.2103C44.3762 45.2304 44.3503 45.2505 44.3295 45.2705C44.2984 45.2906 44.2673 45.3157 44.2363 45.3358C43.9305 45.5316 43.6352 45.6722 43.3398 45.7625C43.0393 45.8579 42.7388 45.9031 42.4382 45.9181H42.4175C42.3139 45.9181 42.2154 45.9181 42.1221 45.9131C42.0496 45.8981 41.9615 45.893 41.8786 45.883ZM54.6306 40.396C53.9104 40.4262 53.3093 39.884 53.2834 39.1862C53.2523 38.4884 53.8119 37.9061 54.5322 37.881L63.6519 37.5497C64.367 37.5296 64.968 38.0717 64.9991 38.7595C65.025 39.4573 64.4706 40.0396 63.7504 40.0697L54.6306 40.396ZM54.3716 31.8117C53.6565 31.9021 53.0036 31.4151 52.9103 30.7324C52.8171 30.0396 53.3197 29.4071 54.0244 29.3167L62.4498 28.2324C63.1648 28.142 63.8177 28.629 63.911 29.3117C64.0043 30.0045 63.5016 30.637 62.7969 30.7274L54.3716 31.8117ZM52.5994 23.9302C51.9206 24.1561 51.1745 23.8097 50.9413 23.1521C50.703 22.4944 51.0657 21.7715 51.7445 21.5456L60.3823 18.639C61.0611 18.4031 61.8072 18.7595 62.0404 19.4171C62.2788 20.0747 61.916 20.7976 61.2373 21.0235L52.5994 23.9302ZM48.5267 16.3448C47.9049 16.6912 47.1069 16.4804 46.7545 15.8729C46.397 15.2705 46.6146 14.5024 47.2416 14.1561L55.4286 9.60786C56.0504 9.26148 56.8484 9.47232 57.2007 10.0798C57.5583 10.6822 57.3406 11.4502 56.7137 11.7966L48.5267 16.3448Z"/>
</mask>
<path fill-rule="evenodd" clip-rule="evenodd" d="M43.6611 9.48738C43.1067 9.92915 42.288 9.85887 41.8268 9.3167C41.3656 8.77453 41.4433 7.98638 42.003 7.53959L49.8117 1.28958C50.3661 0.847816 51.1848 0.918098 51.646 1.45525C52.102 1.9924 52.0295 2.78557 51.4698 3.23236L43.6611 9.48738ZM5.72623 31.5105C4.86607 31.7565 4.23391 32.2986 3.8142 33.0165C3.33231 33.8448 3.11468 34.9141 3.13022 36.0587C3.1354 36.5507 3.18722 37.0577 3.27531 37.5697C3.3634 38.0868 3.49812 38.6039 3.66393 39.1109C3.83493 39.623 4.04219 40.1199 4.28573 40.5968C4.52409 41.0587 4.79353 41.5005 5.08889 41.9021C5.81432 42.881 6.71592 43.6591 7.75744 44.0507C8.66422 44.3971 9.68501 44.4473 10.7835 44.0808L10.8042 44.0758C10.9286 44.0356 11.053 44.0205 11.1773 44.0306C11.2654 44.0356 11.3535 44.0507 11.4416 44.0758L11.4675 44.0657C11.7629 43.9703 12.0686 43.88 12.3691 43.7896L13.193 43.5436C13.4935 43.4583 13.7785 43.378 14.048 43.3027C14.3122 43.2274 14.5817 43.1571 14.8563 43.0868C15.1413 43.0115 15.4263 43.0567 15.6646 43.1872L15.6905 43.2023C15.9134 43.3328 16.0843 43.5436 16.1621 43.8097C16.1776 43.8549 16.1828 43.89 16.188 43.9302C16.2605 44.2464 16.3486 44.5728 16.4108 44.889C16.9756 47.3388 17.5248 49.6983 18.2555 51.6109C18.3176 51.8017 18.3954 51.9874 18.4679 52.1782C18.6907 52.7806 18.9239 53.4031 19.183 53.9704C19.4317 54.5226 19.696 55.0145 19.9965 55.376V55.381C20.2193 55.6521 20.4784 55.8228 20.7841 55.8378C21.1209 55.8529 21.5406 55.6973 22.0692 55.3007C22.2971 55.0949 22.5044 54.9192 22.7169 54.7434L22.7635 54.7033C23.3853 54.1812 24.0071 53.6641 24.2765 52.9563C24.2351 52.9262 24.1884 52.8961 24.1366 52.871C24.0175 52.8057 23.8672 52.7404 23.7169 52.6802L23.7014 52.6752C23.1469 52.4493 22.5977 52.2183 22.1987 51.7364C21.7945 51.2495 21.5769 50.5416 21.7272 49.387C21.7323 49.3167 21.7427 49.2565 21.7531 49.1963C21.7634 49.126 21.7738 49.0557 21.779 48.9854C21.8463 48.4633 21.8826 48.1922 21.8619 48.1169V48.1069C21.8463 48.0868 21.7375 48.0115 21.5199 47.8157C21.4577 47.7605 21.3904 47.7053 21.3334 47.645C21.0121 47.3539 20.7841 47.0075 20.639 46.626C20.4784 46.2043 20.4162 45.7424 20.4214 45.2605C20.4266 44.7886 20.4991 44.2966 20.6079 43.8298C20.7427 43.2625 20.9344 42.7203 21.1261 42.2736L21.1365 42.2585C21.209 42.0928 21.323 41.9573 21.4577 41.8569C21.6028 41.7464 21.779 41.6762 21.9603 41.6511H21.9707C25.8932 41.124 29.0592 41.1942 31.7174 41.5256C34.1165 41.8268 36.0907 42.3338 37.8473 42.8157C36.5052 41.3348 35.272 39.5928 34.1579 37.6952C32.7226 35.2454 31.4894 32.5296 30.4945 29.7786C29.4893 26.9974 28.7276 24.1762 28.2509 21.5456C27.8519 19.3368 27.6498 17.2585 27.6757 15.4563C26.1782 17.5396 24.1625 20.0697 21.1986 22.6199C17.815 25.5266 13.193 28.4583 6.68483 30.7776C6.61747 30.7976 6.55011 30.8227 6.48275 30.8428L6.45166 30.893C6.45166 30.893 6.45684 30.888 6.33766 31.0687L6.3273 31.0838C6.25994 31.1842 6.17703 31.2695 6.08376 31.3398C5.98013 31.4151 5.86613 31.4754 5.74177 31.5105H5.72623ZM35.2875 35.396C36.2617 37.2083 37.3395 38.895 38.5054 40.3559C39.6142 41.7414 40.806 42.9312 42.06 43.8298L42.1895 43.8398C42.2517 43.8448 42.3139 43.8448 42.3657 43.8398H42.3864C42.4849 43.8348 42.5833 43.8197 42.6869 43.7896C42.7854 43.7595 42.889 43.7143 42.9978 43.6541C43.2621 43.393 43.4797 43.0517 43.6559 42.6501C43.8528 42.2083 43.9979 41.6862 44.0912 41.1039C44.3762 39.382 44.2414 37.1782 43.801 34.7434C43.3191 32.0828 42.4641 29.1561 41.3864 26.2896C40.3293 23.4733 39.0546 20.7223 37.697 18.3428C36.4068 16.0737 35.044 14.146 33.7279 12.8257C33.2356 12.3288 32.7589 11.9322 32.3081 11.646C31.8884 11.38 31.4998 11.2093 31.1422 11.1541H31.1319C31.049 11.139 30.9816 11.134 30.9298 11.129C30.909 11.129 30.9298 11.1139 30.9194 11.1189C30.9142 11.1189 30.9142 11.129 30.8883 11.149C30.8417 11.1892 30.7743 11.2494 30.6966 11.3247C30.6292 11.385 30.5619 11.4603 30.4997 11.5306L30.479 11.5707C29.8779 12.7755 29.6706 14.6832 29.8002 17.0075C29.9349 19.3669 30.422 22.143 31.2148 25.0245C33.4688 24.5225 35.2305 24.9844 36.4431 25.9633C37.1529 26.5356 37.6659 27.2786 37.982 28.1069C38.2929 28.9302 38.4069 29.8388 38.3136 30.7474C38.1375 32.5346 37.1478 34.3017 35.2875 35.396ZM41.8786 45.883C41.775 45.8981 41.6713 45.8981 41.5677 45.883C41.4693 45.8679 41.3708 45.8428 41.2775 45.7977C41.1376 45.7726 40.9977 45.7475 40.863 45.7173C39.8837 45.5216 38.9302 45.2555 37.9043 44.9744L37.8369 44.9543C34.3186 43.9854 29.9194 42.7705 22.8723 43.6139C22.779 43.875 22.7013 44.1561 22.6391 44.4322C22.577 44.7234 22.5407 45.0145 22.5355 45.2806C22.5355 45.4914 22.5562 45.6872 22.6029 45.8479C22.6391 45.9683 22.6961 46.0687 22.7739 46.139L22.8982 46.2495C23.4734 46.7565 23.7532 47.0075 23.9138 47.5798C24.0434 48.0416 23.9864 48.4683 23.8724 49.3117C23.8568 49.4272 23.8465 49.5426 23.8257 49.6581C23.7739 50.0647 23.8413 50.3007 23.9656 50.4463C24.0952 50.5969 24.318 50.6922 24.546 50.7826L24.5719 50.7926C25.2973 51.0938 26.0228 51.4001 26.3958 52.3991C26.4373 52.4894 26.4632 52.5898 26.4736 52.6902C26.4839 52.7906 26.4839 52.891 26.4632 52.9965V53.0015C26.3026 53.8097 25.9606 54.4272 25.5305 54.9543C25.1108 55.4714 24.6133 55.883 24.1211 56.2947L24.0071 56.39C23.8361 56.5306 23.6703 56.6712 23.5097 56.8218L23.4267 56.892C22.3023 57.7605 21.3437 58.0718 20.4991 57.9864C19.6441 57.9011 18.9343 57.4091 18.3332 56.6762C17.9187 56.1742 17.5767 55.5567 17.2709 54.8991C16.9704 54.2465 16.7113 53.5587 16.4626 52.891C16.3952 52.7053 16.3227 52.5196 16.2502 52.3338C15.4833 50.3308 14.9185 47.8961 14.3381 45.381C14.1516 45.4312 13.9651 45.4914 13.7785 45.5416C13.4883 45.627 13.2034 45.7073 12.9287 45.7926C12.6489 45.878 12.3743 45.9633 12.1048 46.0436L12.0893 46.0487C12.0478 46.0587 12.0168 46.0738 11.9908 46.0838L11.9753 46.0888C11.7784 46.1691 11.6333 46.2244 11.4675 46.2394C11.3172 46.2545 11.1773 46.2394 11.0115 46.1792C9.51402 46.5808 8.13051 46.4603 6.89728 45.9784C5.49824 45.4262 4.29609 44.3971 3.34267 43.1069L3.33231 43.0969C2.97477 42.5999 2.65351 42.0677 2.36852 41.5055C2.07835 40.9382 1.83481 40.3458 1.63272 39.7434C1.43064 39.141 1.27519 38.5236 1.17156 37.9061C1.06792 37.2936 1.01093 36.6812 1.00056 36.0788C0.985018 34.5627 1.29074 33.127 1.96953 31.9673C2.58097 30.9282 3.49294 30.1149 4.73135 29.6631C4.77799 29.5928 4.81426 29.5326 4.85571 29.4824C4.92307 29.397 4.99562 29.3217 5.09407 29.2414L5.11479 29.2264C5.21843 29.141 5.31688 29.0858 5.43087 29.0306C5.53451 28.9854 5.65369 28.9402 5.81432 28.885L5.9594 28.8348C12.5453 26.4854 17.1 23.4834 20.3696 20.5466C23.6392 17.6099 25.6289 14.7384 27.0643 12.65L27.0954 12.6049C27.8985 11.4402 28.5462 10.5115 29.1939 9.88397C29.3597 9.72333 29.5048 9.5928 29.6603 9.48236C29.8209 9.3669 29.9867 9.27654 30.1784 9.20626C30.3805 9.13598 30.5774 9.09582 30.7899 9.08578C30.9971 9.07574 31.2199 9.09582 31.479 9.13598C32.0905 9.23136 32.7123 9.47734 33.3392 9.85887C33.9766 10.2454 34.6191 10.7725 35.2565 11.4151C36.6762 12.8408 38.1375 14.899 39.5106 17.3037C40.9407 19.8037 42.2776 22.6751 43.3761 25.6119C44.5057 28.6239 45.3969 31.7063 45.8996 34.5326C46.3607 37.138 46.4955 39.5326 46.1742 41.4452C46.0395 42.2485 45.827 42.9814 45.5317 43.6139C45.2415 44.2364 44.8632 44.7736 44.3969 45.2103C44.3762 45.2304 44.3503 45.2505 44.3295 45.2705C44.2984 45.2906 44.2673 45.3157 44.2363 45.3358C43.9305 45.5316 43.6352 45.6722 43.3398 45.7625C43.0393 45.8579 42.7388 45.9031 42.4382 45.9181H42.4175C42.3139 45.9181 42.2154 45.9181 42.1221 45.9131C42.0496 45.8981 41.9615 45.893 41.8786 45.883ZM54.6306 40.396C53.9104 40.4262 53.3093 39.884 53.2834 39.1862C53.2523 38.4884 53.8119 37.9061 54.5322 37.881L63.6519 37.5497C64.367 37.5296 64.968 38.0717 64.9991 38.7595C65.025 39.4573 64.4706 40.0396 63.7504 40.0697L54.6306 40.396ZM54.3716 31.8117C53.6565 31.9021 53.0036 31.4151 52.9103 30.7324C52.8171 30.0396 53.3197 29.4071 54.0244 29.3167L62.4498 28.2324C63.1648 28.142 63.8177 28.629 63.911 29.3117C64.0043 30.0045 63.5016 30.637 62.7969 30.7274L54.3716 31.8117ZM52.5994 23.9302C51.9206 24.1561 51.1745 23.8097 50.9413 23.1521C50.703 22.4944 51.0657 21.7715 51.7445 21.5456L60.3823 18.639C61.0611 18.4031 61.8072 18.7595 62.0404 19.4171C62.2788 20.0747 61.916 20.7976 61.2373 21.0235L52.5994 23.9302ZM48.5267 16.3448C47.9049 16.6912 47.1069 16.4804 46.7545 15.8729C46.397 15.2705 46.6146 14.5024 47.2416 14.1561L55.4286 9.60786C56.0504 9.26148 56.8484 9.47232 57.2007 10.0798C57.5583 10.6822 57.3406 11.4502 56.7137 11.7966L48.5267 16.3448Z" fill="white"/>
<path fill-rule="evenodd" clip-rule="evenodd" d="M43.6611 9.48738C43.1067 9.92915 42.288 9.85887 41.8268 9.3167C41.3656 8.77453 41.4433 7.98638 42.003 7.53959L49.8117 1.28958C50.3661 0.847816 51.1848 0.918098 51.646 1.45525C52.102 1.9924 52.0295 2.78557 51.4698 3.23236L43.6611 9.48738ZM5.72623 31.5105C4.86607 31.7565 4.23391 32.2986 3.8142 33.0165C3.33231 33.8448 3.11468 34.9141 3.13022 36.0587C3.1354 36.5507 3.18722 37.0577 3.27531 37.5697C3.3634 38.0868 3.49812 38.6039 3.66393 39.1109C3.83493 39.623 4.04219 40.1199 4.28573 40.5968C4.52409 41.0587 4.79353 41.5005 5.08889 41.9021C5.81432 42.881 6.71592 43.6591 7.75744 44.0507C8.66422 44.3971 9.68501 44.4473 10.7835 44.0808L10.8042 44.0758C10.9286 44.0356 11.053 44.0205 11.1773 44.0306C11.2654 44.0356 11.3535 44.0507 11.4416 44.0758L11.4675 44.0657C11.7629 43.9703 12.0686 43.88 12.3691 43.7896L13.193 43.5436C13.4935 43.4583 13.7785 43.378 14.048 43.3027C14.3122 43.2274 14.5817 43.1571 14.8563 43.0868C15.1413 43.0115 15.4263 43.0567 15.6646 43.1872L15.6905 43.2023C15.9134 43.3328 16.0843 43.5436 16.1621 43.8097C16.1776 43.8549 16.1828 43.89 16.188 43.9302C16.2605 44.2464 16.3486 44.5728 16.4108 44.889C16.9756 47.3388 17.5248 49.6983 18.2555 51.6109C18.3176 51.8017 18.3954 51.9874 18.4679 52.1782C18.6907 52.7806 18.9239 53.4031 19.183 53.9704C19.4317 54.5226 19.696 55.0145 19.9965 55.376V55.381C20.2193 55.6521 20.4784 55.8228 20.7841 55.8378C21.1209 55.8529 21.5406 55.6973 22.0692 55.3007C22.2971 55.0949 22.5044 54.9192 22.7169 54.7434L22.7635 54.7033C23.3853 54.1812 24.0071 53.6641 24.2765 52.9563C24.2351 52.9262 24.1884 52.8961 24.1366 52.871C24.0175 52.8057 23.8672 52.7404 23.7169 52.6802L23.7014 52.6752C23.1469 52.4493 22.5977 52.2183 22.1987 51.7364C21.7945 51.2495 21.5769 50.5416 21.7272 49.387C21.7323 49.3167 21.7427 49.2565 21.7531 49.1963C21.7634 49.126 21.7738 49.0557 21.779 48.9854C21.8463 48.4633 21.8826 48.1922 21.8619 48.1169V48.1069C21.8463 48.0868 21.7375 48.0115 21.5199 47.8157C21.4577 47.7605 21.3904 47.7053 21.3334 47.645C21.0121 47.3539 20.7841 47.0075 20.639 46.626C20.4784 46.2043 20.4162 45.7424 20.4214 45.2605C20.4266 44.7886 20.4991 44.2966 20.6079 43.8298C20.7427 43.2625 20.9344 42.7203 21.1261 42.2736L21.1365 42.2585C21.209 42.0928 21.323 41.9573 21.4577 41.8569C21.6028 41.7464 21.779 41.6762 21.9603 41.6511H21.9707C25.8932 41.124 29.0592 41.1942 31.7174 41.5256C34.1165 41.8268 36.0907 42.3338 37.8473 42.8157C36.5052 41.3348 35.272 39.5928 34.1579 37.6952C32.7226 35.2454 31.4894 32.5296 30.4945 29.7786C29.4893 26.9974 28.7276 24.1762 28.2509 21.5456C27.8519 19.3368 27.6498 17.2585 27.6757 15.4563C26.1782 17.5396 24.1625 20.0697 21.1986 22.6199C17.815 25.5266 13.193 28.4583 6.68483 30.7776C6.61747 30.7976 6.55011 30.8227 6.48275 30.8428L6.45166 30.893C6.45166 30.893 6.45684 30.888 6.33766 31.0687L6.3273 31.0838C6.25994 31.1842 6.17703 31.2695 6.08376 31.3398C5.98013 31.4151 5.86613 31.4754 5.74177 31.5105H5.72623ZM35.2875 35.396C36.2617 37.2083 37.3395 38.895 38.5054 40.3559C39.6142 41.7414 40.806 42.9312 42.06 43.8298L42.1895 43.8398C42.2517 43.8448 42.3139 43.8448 42.3657 43.8398H42.3864C42.4849 43.8348 42.5833 43.8197 42.6869 43.7896C42.7854 43.7595 42.889 43.7143 42.9978 43.6541C43.2621 43.393 43.4797 43.0517 43.6559 42.6501C43.8528 42.2083 43.9979 41.6862 44.0912 41.1039C44.3762 39.382 44.2414 37.1782 43.801 34.7434C43.3191 32.0828 42.4641 29.1561 41.3864 26.2896C40.3293 23.4733 39.0546 20.7223 37.697 18.3428C36.4068 16.0737 35.044 14.146 33.7279 12.8257C33.2356 12.3288 32.7589 11.9322 32.3081 11.646C31.8884 11.38 31.4998 11.2093 31.1422 11.1541H31.1319C31.049 11.139 30.9816 11.134 30.9298 11.129C30.909 11.129 30.9298 11.1139 30.9194 11.1189C30.9142 11.1189 30.9142 11.129 30.8883 11.149C30.8417 11.1892 30.7743 11.2494 30.6966 11.3247C30.6292 11.385 30.5619 11.4603 30.4997 11.5306L30.479 11.5707C29.8779 12.7755 29.6706 14.6832 29.8002 17.0075C29.9349 19.3669 30.422 22.143 31.2148 25.0245C33.4688 24.5225 35.2305 24.9844 36.4431 25.9633C37.1529 26.5356 37.6659 27.2786 37.982 28.1069C38.2929 28.9302 38.4069 29.8388 38.3136 30.7474C38.1375 32.5346 37.1478 34.3017 35.2875 35.396ZM41.8786 45.883C41.775 45.8981 41.6713 45.8981 41.5677 45.883C41.4693 45.8679 41.3708 45.8428 41.2775 45.7977C41.1376 45.7726 40.9977 45.7475 40.863 45.7173C39.8837 45.5216 38.9302 45.2555 37.9043 44.9744L37.8369 44.9543C34.3186 43.9854 29.9194 42.7705 22.8723 43.6139C22.779 43.875 22.7013 44.1561 22.6391 44.4322C22.577 44.7234 22.5407 45.0145 22.5355 45.2806C22.5355 45.4914 22.5562 45.6872 22.6029 45.8479C22.6391 45.9683 22.6961 46.0687 22.7739 46.139L22.8982 46.2495C23.4734 46.7565 23.7532 47.0075 23.9138 47.5798C24.0434 48.0416 23.9864 48.4683 23.8724 49.3117C23.8568 49.4272 23.8465 49.5426 23.8257 49.6581C23.7739 50.0647 23.8413 50.3007 23.9656 50.4463C24.0952 50.5969 24.318 50.6922 24.546 50.7826L24.5719 50.7926C25.2973 51.0938 26.0228 51.4001 26.3958 52.3991C26.4373 52.4894 26.4632 52.5898 26.4736 52.6902C26.4839 52.7906 26.4839 52.891 26.4632 52.9965V53.0015C26.3026 53.8097 25.9606 54.4272 25.5305 54.9543C25.1108 55.4714 24.6133 55.883 24.1211 56.2947L24.0071 56.39C23.8361 56.5306 23.6703 56.6712 23.5097 56.8218L23.4267 56.892C22.3023 57.7605 21.3437 58.0718 20.4991 57.9864C19.6441 57.9011 18.9343 57.4091 18.3332 56.6762C17.9187 56.1742 17.5767 55.5567 17.2709 54.8991C16.9704 54.2465 16.7113 53.5587 16.4626 52.891C16.3952 52.7053 16.3227 52.5196 16.2502 52.3338C15.4833 50.3308 14.9185 47.8961 14.3381 45.381C14.1516 45.4312 13.9651 45.4914 13.7785 45.5416C13.4883 45.627 13.2034 45.7073 12.9287 45.7926C12.6489 45.878 12.3743 45.9633 12.1048 46.0436L12.0893 46.0487C12.0478 46.0587 12.0168 46.0738 11.9908 46.0838L11.9753 46.0888C11.7784 46.1691 11.6333 46.2244 11.4675 46.2394C11.3172 46.2545 11.1773 46.2394 11.0115 46.1792C9.51402 46.5808 8.13051 46.4603 6.89728 45.9784C5.49824 45.4262 4.29609 44.3971 3.34267 43.1069L3.33231 43.0969C2.97477 42.5999 2.65351 42.0677 2.36852 41.5055C2.07835 40.9382 1.83481 40.3458 1.63272 39.7434C1.43064 39.141 1.27519 38.5236 1.17156 37.9061C1.06792 37.2936 1.01093 36.6812 1.00056 36.0788C0.985018 34.5627 1.29074 33.127 1.96953 31.9673C2.58097 30.9282 3.49294 30.1149 4.73135 29.6631C4.77799 29.5928 4.81426 29.5326 4.85571 29.4824C4.92307 29.397 4.99562 29.3217 5.09407 29.2414L5.11479 29.2264C5.21843 29.141 5.31688 29.0858 5.43087 29.0306C5.53451 28.9854 5.65369 28.9402 5.81432 28.885L5.9594 28.8348C12.5453 26.4854 17.1 23.4834 20.3696 20.5466C23.6392 17.6099 25.6289 14.7384 27.0643 12.65L27.0954 12.6049C27.8985 11.4402 28.5462 10.5115 29.1939 9.88397C29.3597 9.72333 29.5048 9.5928 29.6603 9.48236C29.8209 9.3669 29.9867 9.27654 30.1784 9.20626C30.3805 9.13598 30.5774 9.09582 30.7899 9.08578C30.9971 9.07574 31.2199 9.09582 31.479 9.13598C32.0905 9.23136 32.7123 9.47734 33.3392 9.85887C33.9766 10.2454 34.6191 10.7725 35.2565 11.4151C36.6762 12.8408 38.1375 14.899 39.5106 17.3037C40.9407 19.8037 42.2776 22.6751 43.3761 25.6119C44.5057 28.6239 45.3969 31.7063 45.8996 34.5326C46.3607 37.138 46.4955 39.5326 46.1742 41.4452C46.0395 42.2485 45.827 42.9814 45.5317 43.6139C45.2415 44.2364 44.8632 44.7736 44.3969 45.2103C44.3762 45.2304 44.3503 45.2505 44.3295 45.2705C44.2984 45.2906 44.2673 45.3157 44.2363 45.3358C43.9305 45.5316 43.6352 45.6722 43.3398 45.7625C43.0393 45.8579 42.7388 45.9031 42.4382 45.9181H42.4175C42.3139 45.9181 42.2154 45.9181 42.1221 45.9131C42.0496 45.8981 41.9615 45.893 41.8786 45.883ZM54.6306 40.396C53.9104 40.4262 53.3093 39.884 53.2834 39.1862C53.2523 38.4884 53.8119 37.9061 54.5322 37.881L63.6519 37.5497C64.367 37.5296 64.968 38.0717 64.9991 38.7595C65.025 39.4573 64.4706 40.0396 63.7504 40.0697L54.6306 40.396ZM54.3716 31.8117C53.6565 31.9021 53.0036 31.4151 52.9103 30.7324C52.8171 30.0396 53.3197 29.4071 54.0244 29.3167L62.4498 28.2324C63.1648 28.142 63.8177 28.629 63.911 29.3117C64.0043 30.0045 63.5016 30.637 62.7969 30.7274L54.3716 31.8117ZM52.5994 23.9302C51.9206 24.1561 51.1745 23.8097 50.9413 23.1521C50.703 22.4944 51.0657 21.7715 51.7445 21.5456L60.3823 18.639C61.0611 18.4031 61.8072 18.7595 62.0404 19.4171C62.2788 20.0747 61.916 20.7976 61.2373 21.0235L52.5994 23.9302ZM48.5267 16.3448C47.9049 16.6912 47.1069 16.4804 46.7545 15.8729C46.397 15.2705 46.6146 14.5024 47.2416 14.1561L55.4286 9.60786C56.0504 9.26148 56.8484 9.47232 57.2007 10.0798C57.5583 10.6822 57.3406 11.4502 56.7137 11.7966L48.5267 16.3448Z" stroke="white" stroke-width="2" stroke-linecap="round" stroke-linejoin="round" mask="url(#path-1-outside-1_1_861)"/>
</svg>
