<svg width="60" height="60" viewBox="0 0 60 60" fill="none" xmlns="http://www.w3.org/2000/svg">
<path d="M30.4103 28.2902C28.4653 27.8234 28.2422 27.638 28.2422 26.4844C28.2422 24.9548 30.4893 24.1996 31.4059 25.4304C31.9879 26.2063 33.0916 26.3643 33.8675 25.7805C34.6434 25.1986 34.7996 24.0966 34.2177 23.3189C33.5926 22.4857 32.7212 21.8971 31.7578 21.5521V19.4531C31.7578 18.4815 30.9716 17.6953 30 17.6953C29.0284 17.6953 28.2422 18.4815 28.2422 19.4531V21.5347C26.2005 22.2627 24.7266 24.1957 24.7266 26.4844C24.7266 30.5407 27.7702 31.272 29.5897 31.7098C31.5347 32.1766 31.7578 32.362 31.7578 33.5156C31.7578 34.4855 30.9698 35.2734 30 35.2734C29.4421 35.2734 28.9288 35.0176 28.5941 34.5696C28.0121 33.7937 26.9135 33.6409 26.1325 34.2195C25.3566 34.8014 25.2004 35.9034 25.7823 36.6811C26.4074 37.5143 27.2788 38.1029 28.2422 38.4479V40.5469C28.2422 41.5185 29.0284 42.3047 30 42.3047C30.9716 42.3047 31.7578 41.5185 31.7578 40.5469V38.4653C33.7995 37.7373 35.2734 35.8043 35.2734 33.5156C35.2734 29.4593 32.2298 28.728 30.4103 28.2902Z" fill="#6FB43B"/>
<path d="M60 30.1172C60 15.1432 48.83 2.40246 34.0173 0.481523C33.111 0.354492 32.3024 0.931289 32.0862 1.79813L30.3575 8.71441C30.0963 9.75223 30.8217 10.7929 31.9059 10.8911C41.9104 11.7803 49.4531 20.0459 49.4531 30.1172C49.4531 36.6008 46.195 42.6279 40.8546 46.1916L38.5543 43.1257C37.6761 41.9497 35.8008 42.3114 35.4438 43.7539L31.9282 57.8164C31.65 58.922 32.4885 60 33.6328 60H47.6953C49.1454 60 49.9672 58.3404 49.1012 57.1882L47.2009 54.6527C55.2518 49.0601 60 40.0238 60 30.1172ZM28.0941 49.1089C18.0896 48.2197 10.5469 39.9541 10.5469 29.8828C10.5469 23.3992 13.805 17.3721 19.1454 13.8084L21.4457 16.8743C22.3162 18.0364 24.1965 17.7 24.5562 16.2461L28.0718 2.18355C28.35 1.07801 27.5115 0 26.3672 0H12.3047C10.8546 0 10.0328 1.65961 10.8988 2.8118L12.7991 5.34727C4.7482 10.9399 0 19.9762 0 29.8828C0 44.8568 11.17 57.5975 25.9827 59.5185C26.8576 59.6352 27.6959 59.076 27.9138 58.2019L29.6425 51.2856C29.9037 50.2478 29.1783 49.2071 28.0941 49.1089Z" fill="#6FB43B"/>
</svg>
