<svg width="69" height="63" viewBox="0 0 69 63" fill="none" xmlns="http://www.w3.org/2000/svg">
<path d="M17.5252 35.7472C17.2392 35.7472 16.965 35.6335 16.7628 35.4313C16.5606 35.229 16.447 34.9546 16.447 34.6685C16.447 34.3825 16.5606 34.1081 16.7628 33.9058C16.965 33.7035 17.2392 33.5899 17.5252 33.5899H19.0918C20.0098 33.5725 20.9149 33.8077 21.7085 34.2697C22.5888 34.8449 23.2156 35.7354 23.4605 36.7584C23.4544 36.7716 23.4513 36.786 23.4513 36.8006C23.4513 36.8151 23.4544 36.8295 23.4605 36.8427L23.73 37.9663H24.3477V33.5281C24.3491 33.241 24.4638 32.966 24.6667 32.763C24.8696 32.56 25.1444 32.4453 25.4314 32.4438H31.1533C31.4403 32.4453 31.7151 32.56 31.918 32.763C32.1209 32.966 32.2356 33.241 32.2371 33.5281V36.1629C32.6903 35.7044 33.2298 35.3402 33.8244 35.0914C34.4191 34.8426 35.0571 34.7142 35.7017 34.7135C36.2765 34.7109 36.8471 34.8118 37.3862 35.0112C38.1304 34.2197 39.0793 33.6499 40.1275 33.365C41.1757 33.0801 42.2822 33.0913 43.3245 33.3974C44.3667 33.7035 45.3037 34.2924 46.0318 35.0989C46.7598 35.9054 47.2502 36.8979 47.4487 37.9663H47.7127C47.9946 37.9678 48.2646 38.0809 48.4634 38.2809C48.6623 38.4809 48.7739 38.7516 48.7739 39.0337C48.7709 39.144 48.7539 39.2535 48.7234 39.3595L45.9158 50.5955C45.862 50.8302 45.7297 51.0395 45.5408 51.1887C45.3519 51.3379 45.1176 51.418 44.877 51.4157H27.3687C27.7505 52.809 28.138 53.5843 28.6377 53.9326C29.2666 54.3427 30.3616 54.3708 32.1922 54.3427H44.5962C44.8792 54.3427 45.1505 54.4552 45.3506 54.6553C45.5507 54.8555 45.6631 55.127 45.6631 55.4101C45.6631 55.6932 45.5507 55.9647 45.3506 56.1649C45.1505 56.3651 44.8792 56.4775 44.5962 56.4775H32.2427C29.9966 56.4775 28.5759 56.4775 27.4585 55.7079C26.3411 54.9382 25.7066 53.6292 25.1057 51.2472L21.4334 37.3876C21.4334 37.3876 21.4334 37.3876 21.4334 37.3371C21.3844 37.0881 21.2868 36.8512 21.1461 36.6401C21.0054 36.429 20.8244 36.2477 20.6135 36.1067C20.1506 35.8451 19.6229 35.7205 19.0918 35.7472H17.5252ZM64.3281 29.5674V59.3427C64.3267 60.3122 63.941 61.2416 63.2558 61.9272C62.5706 62.6127 61.6417 62.9985 60.6726 63H8.32741C7.8471 62.9991 7.3717 62.9033 6.92845 62.7182C6.4852 62.5331 6.08283 62.2623 5.7444 61.9213C5.40434 61.5825 5.13454 61.1797 4.95049 60.7362C4.76644 60.2928 4.67176 59.8173 4.67189 59.3371V29.6067C5.75898 29.786 6.86173 29.8519 7.96242 29.8034V59.0674C7.96197 59.1509 7.97812 59.2336 8.00993 59.3108C8.04174 59.3879 8.08858 59.458 8.14772 59.5169C8.20703 59.575 8.27726 59.6208 8.35436 59.6517C8.43146 59.6825 8.51391 59.6978 8.59694 59.6966H27.3462C27.4947 59.1364 27.8241 58.6411 28.2831 58.2875C28.7421 57.9339 29.305 57.742 29.8843 57.7416C30.4643 57.7417 31.028 57.9334 31.488 58.2869C31.9479 58.6405 32.2784 59.136 32.428 59.6966H38.8574C39.006 59.1364 39.3353 58.6411 39.7943 58.2875C40.2533 57.9339 40.8162 57.742 41.3955 57.7416C41.9758 57.7408 42.54 57.9321 43.0001 58.2858C43.4602 58.6394 43.7904 59.1355 43.9392 59.6966H60.4031C60.5714 59.6966 60.7328 59.6297 60.8518 59.5107C60.9708 59.3916 61.0376 59.2302 61.0376 59.0618V29.6629C62.1344 29.7537 63.2379 29.7236 64.3281 29.573V29.5674ZM38.6384 42.3258C38.6721 42.1532 38.7648 41.9976 38.9005 41.8857C39.0362 41.7739 39.2066 41.7127 39.3825 41.7127C39.5583 41.7127 39.7287 41.7739 39.8644 41.8857C40.0002 41.9976 40.0928 42.1532 40.1265 42.3258V46.4551C40.0928 46.6277 40.0002 46.7833 39.8644 46.8952C39.7287 47.007 39.5583 47.0682 39.3825 47.0682C39.2066 47.0682 39.0362 47.007 38.9005 46.8952C38.7648 46.7833 38.6721 46.6277 38.6384 46.4551V42.3258ZM34.18 42.3258C34.2136 42.1532 34.3063 41.9976 34.442 41.8857C34.5777 41.7739 34.7481 41.7127 34.924 41.7127C35.0998 41.7127 35.2702 41.7739 35.4059 41.8857C35.5417 41.9976 35.6343 42.1532 35.668 42.3258V46.4551C35.6343 46.6277 35.5417 46.7833 35.4059 46.8952C35.2702 47.007 35.0998 47.0682 34.924 47.0682C34.7481 47.0682 34.5777 47.007 34.442 46.8952C34.3063 46.7833 34.2136 46.6277 34.18 46.4551V42.3258ZM29.7271 42.3258C29.7608 42.1532 29.8534 41.9976 29.9891 41.8857C30.1249 41.7739 30.2952 41.7127 30.4711 41.7127C30.6469 41.7127 30.8173 41.7739 30.953 41.8857C31.0888 41.9976 31.1814 42.1532 31.2151 42.3258V46.4551C31.1814 46.6277 31.0888 46.7833 30.953 46.8952C30.8173 47.007 30.6469 47.0682 30.4711 47.0682C30.2952 47.0682 30.1249 47.007 29.9891 46.8952C29.8534 46.7833 29.7608 46.6277 29.7271 46.4551V42.3258ZM38.9473 35.9551C39.5638 36.5037 40.0411 37.1912 40.3399 37.9607H45.5564C45.3859 37.2867 45.0443 36.6682 44.5645 36.1652C44.0847 35.6622 43.4831 35.2919 42.8181 35.0901C42.1531 34.8883 41.4472 34.8619 40.769 35.0134C40.0908 35.165 39.4633 35.4893 38.9473 35.9551ZM40.6936 40.0955H24.3645L26.7959 49.2584H44.0515L46.2976 40.0955H40.6936ZM30.9961 37.9382C30.9961 37.8652 31.0579 37.7865 31.0916 37.7135V34.309C31.0916 34.1004 31.0087 33.9003 30.8613 33.7528C30.7139 33.6053 30.5139 33.5225 30.3054 33.5225H26.3916C26.1831 33.5225 25.9832 33.6053 25.8357 33.7528C25.6883 33.9003 25.6055 34.1004 25.6055 34.309V37.9382H30.9961ZM59.572 26.0674C58.8701 25.736 57.1406 25.2865 56.596 24.7472C56.1222 24.269 55.7211 23.7239 55.4055 23.1292C55.09 23.7239 54.6889 24.269 54.2151 24.7472C53.0134 25.9438 50.2844 26.691 48.437 26.691C46.5896 26.691 43.8606 25.9438 42.6758 24.7472C42.202 24.269 41.8009 23.7239 41.4854 23.1292C41.1698 23.7239 40.7687 24.269 40.2949 24.7472C39.0933 25.9438 36.3643 26.691 34.5169 26.691C32.6695 26.691 29.9404 25.9438 28.7388 24.7472C28.2531 24.2713 27.8406 23.7261 27.5147 23.1292C27.1991 23.7239 26.798 24.269 26.3242 24.7472C25.1226 25.9438 22.3936 26.691 20.5462 26.691C18.6987 26.691 15.9697 25.9438 14.7681 24.7472C14.2943 24.269 13.8932 23.7239 13.5777 23.1292C13.2621 23.7239 12.861 24.269 12.3872 24.7472C11.5955 25.5337 9.51222 26.1292 8.41164 26.4326C6.19362 26.7022 3.57692 26.382 1.93166 24.7472C1.31753 24.1317 0.830792 23.401 0.499331 22.597C0.167869 21.793 -0.00180872 20.9315 1.4539e-05 20.0618V17.4551C0.00172043 17.3256 0.0344569 17.1984 0.0954735 17.0843L4.76735 2.11236C5.14918 0.882022 6.08693 0.0898876 7.90065 0H60.7344C62.3628 0.174157 63.4241 0.859551 63.8621 2.10112L68.9158 17.0562C68.98 17.1635 69.0166 17.2851 69.0225 17.4101C69.0251 17.4363 69.0251 17.4626 69.0225 17.4888V20.0618C69.0221 20.9327 68.8498 21.7949 68.5154 22.599C68.181 23.403 67.6912 24.1331 67.074 24.7472C65.1199 26.7022 62.1438 26.6517 59.5945 26.0674H59.572Z" fill="white"/>
</svg>
