<svg width="64" height="32" viewBox="0 0 64 32" fill="none" xmlns="http://www.w3.org/2000/svg">
<path d="M20.2201 24.0604C19.1576 25.0606 18.3449 26.3729 18.0951 27.8731H13.2199C12.7198 27.8731 12.3449 27.4354 12.4072 26.9357L12.7198 25.0605C12.7822 24.5605 13.2823 24.1232 13.8447 24.1232H20.22L20.2201 24.0604Z" fill="#6FB43B"/>
<path d="M61.2843 24.0604L63.0966 13.8724V13.4347L60.2841 4.68453C60.159 4.37192 59.9092 4.18445 59.5342 4.18445L50.5966 4.18488C50.0965 4.18488 49.5964 4.62262 49.4718 5.12225L46.1591 24.0605H28.7209C29.4708 25.0607 29.7834 26.373 29.4708 27.8732H47.3465C47.5964 26.4358 48.409 25.0607 49.4715 24.0605C50.7215 22.8729 52.3469 22.1854 54.0341 22.1854C55.7218 22.1854 57.0968 22.9353 57.9092 24.0605C58.6591 25.0607 58.9716 26.373 58.7218 27.8732H60.597C61.0971 27.8732 61.5972 27.4355 61.7218 26.9358L62.0344 25.0607C62.16 24.4982 61.7846 24.0605 61.2845 24.0605L61.2843 24.0604ZM49.8463 13.6225L51.1591 6.05946H58.7221L61.1597 13.6225H49.8463Z" fill="#6FB43B"/>
<path d="M24.4703 24.0604C22.4077 24.0604 20.4079 25.7481 20.0324 27.8731C19.6575 29.9357 21.0949 31.6857 23.1575 31.6857C25.2201 31.6857 27.22 29.9981 27.5954 27.8731C27.9708 25.7481 26.533 24.0604 24.4703 24.0604ZM25.658 27.8108C25.4705 28.8733 24.4703 29.686 23.4079 29.686C22.3454 29.686 21.6578 28.811 21.8453 27.8108C22.0328 26.7483 23.033 25.9356 24.0954 25.9356C25.1579 25.9356 25.8455 26.8106 25.658 27.8108Z" fill="#6FB43B"/>
<path d="M53.7215 24.0604C51.6589 24.0604 49.659 25.7481 49.2836 27.8731C48.9086 29.9357 50.346 31.6857 52.4087 31.6857C54.4713 31.6857 56.4711 29.9981 56.8466 27.8731C57.1592 25.7481 55.7841 24.0604 53.7215 24.0604ZM54.9091 27.8108C54.7217 28.8733 53.7215 29.686 52.659 29.686C51.5966 29.686 50.909 28.811 51.0965 27.8108C51.284 26.7483 52.2841 25.9356 53.3466 25.9356C54.4091 25.9356 55.0966 26.8106 54.9091 27.8108Z" fill="#6FB43B"/>
<path d="M48.4088 0.371948L44.5338 22.1229H13.2199L13.5325 20.2477H8.53221C8.03213 20.2477 7.59484 19.8099 7.59484 19.3103C7.59484 18.8102 8.03257 18.373 8.53221 18.373H22.7203C23.2204 18.373 23.6577 17.9352 23.6577 17.4356C23.6577 16.9355 23.2199 16.4982 22.7203 16.4982L14.2822 16.4978L14.7823 13.6853H5.71908C5.21901 13.6853 4.78172 13.2476 4.78172 12.7479C4.78172 12.2479 5.21945 11.8106 5.71908 11.8106H26.5325C27.0325 11.8106 27.4698 11.3728 27.4698 10.8732C27.4698 10.3731 27.0321 9.93585 26.5325 9.93585L15.407 9.93497L15.9071 7.12247H1.90648C1.4064 7.12247 0.969116 6.68474 0.969116 6.18511C0.969116 5.68503 1.40685 5.24775 1.90648 5.24775H22.7199C23.2199 5.24775 23.6572 4.81001 23.6572 4.31038C23.6572 3.81031 23.2195 3.37302 22.7199 3.37302H16.532L17.0321 0.560515L48.4084 0.559643L48.4088 0.371948Z" fill="#6FB43B"/>
</svg>
