<svg width="66" height="58" viewBox="0 0 66 58" fill="none" xmlns="http://www.w3.org/2000/svg">
<path d="M20.5484 24.0579L32.2101 27.9452V13.4165L10.4163 20.6813L20.5484 24.0579Z" fill="#6FB43B"/>
<path d="M55.637 20.6813L33.8433 13.4165V27.9452L45.6222 24.0183L55.637 20.6813Z" fill="#6FB43B"/>
<path d="M8.65109 37.2094V49.4832L32.2095 57.3366V31.775L24.9617 42.6466L8.65109 37.2094Z" fill="#6FB43B"/>
<path d="M33.8433 31.7756V57.3372L57.4017 49.4838V37.21L41.0904 42.6472L33.8433 31.7756Z" fill="#6FB43B"/>
<path d="M58.2186 22.1522L57.8855 21.6517L50.4768 24.1225L45.8575 25.6614L34.2985 29.5142L41.7572 40.7025L57.4016 35.4871L58.2182 35.215L59.0352 34.943L65.3437 32.8401L59.0352 23.3771L58.2186 22.1522Z" fill="#6FB43B"/>
<path d="M24.2969 40.7027L31.755 29.5145L20.3137 25.7013L8.16815 21.6521L7.83501 22.1525L7.01846 23.3774L0.709503 32.8404L7.01846 34.9433L8.65152 35.4873L24.2969 40.7027Z" fill="#6FB43B"/>
<path d="M65.3438 8.52119L41.7572 0.658691L34.2986 11.8469L57.8852 19.7089L65.3438 8.52119Z" fill="#6FB43B"/>
<path d="M31.7542 11.8475L24.2961 0.659302L0.708221 8.5218L8.16688 19.7095L31.7542 11.8475Z" fill="#6FB43B"/>
</svg>
